<svg xmlns="http://www.w3.org/2000/svg" width="373" height="401">
<!-- <path style="fill:#ffffff;stroke:none;" d="M0 0L0 401L373 401L373 0L0 0z"/>  #1bbdca #1bbdca  #127ac1-->
<path style="fill:#fff; stroke:none;" d="M195 27C199.277 29.2905 204.419 30.0264 209 31.6952C214.916 33.8502 220.674 36.8841 226 40.2292C252.028 56.575 266.684 84.8332 268.816 115C269.364 122.767 267.266 131.453 265.575 139C264.798 142.465 262.891 146.419 263.796 150C264.871 154.258 268.41 158.222 270.573 162C274.775 169.342 278.44 177.135 281.55 185C288.7 203.077 290 222.813 290 242C293.732 238.013 295.822 232.851 298.247 228C302.35 219.794 306.401 211.716 309.333 203C322.078 165.102 315.929 117.06 292.961 84C278.876 63.7276 257.517 47.372 235 37.5756C222.278 32.0409 209.046 27.29 195 27z"/>
<path style="fill:#fff; stroke:none;" d="M215 198C199.344 202.476 184.784 208.434 168 206.83C121.953 202.43 80.3825 160.909 83.0934 113C84.0778 95.6014 89.7681 78.2888 99.7708 64C104.038 57.9038 109.742 53.044 114 47C102.864 51.2836 93.2574 61.7028 85.0008 70C55.6481 99.4968 44.9445 148.997 54.2353 189C59.5276 211.787 71.6452 233.546 84.3441 253C93.6059 267.188 103.366 280.814 114 294C117.088 297.829 121.613 305.934 127.004 306.469C133.451 307.11 142.719 299.362 148 296.2C167.913 284.275 186.911 269.14 200.279 250C211.751 233.574 211.525 216.719 215 198z"/>
<path style="fill:#fff; stroke:none;" d="M176 97C171.204 89.7526 165.388 82 161.959 74C160.393 70.347 161.895 64.2725 156.945 62.9313C152.949 61.8485 149.139 66.0571 151.072 69.8573C152.642 72.9441 156.801 74.2228 158.907 77.0579C163.795 83.64 167.477 91.164 172 98C165.429 93.9078 157.689 88.9325 152.314 83.3341C149.928 80.8491 149.649 76.0695 145.895 75.1072C140.589 73.7472 137.203 80.7419 141.434 84.1281C143.8 86.0211 147.349 85.6443 150 87.1034C156.737 90.8107 161.858 96.9806 169 100C155.15 107.385 144.043 115.224 139.029 131C137.164 136.867 138.116 143.377 136.006 149C132.622 158.022 126.514 165.942 123 175C131.693 173.503 138.54 167.216 147 165.39C151.369 164.448 155.648 165.612 160 165.91C166.3 166.342 172.903 165.752 179 164.073C185.417 162.307 195.536 153.65 202 155.969C223.183 163.569 221.839 190.387 221.039 208C219.362 244.958 196.784 271.953 168 293.37C156.944 301.597 144.759 309.687 132 315C135.352 322.189 142.427 328.418 148 334C159.35 345.369 171.612 355.706 183 367C190.262 361.885 196.506 355.136 203 349.09C222.436 330.992 240.088 310.968 256.424 290C262.028 282.807 267.522 275.54 272.656 268C274.976 264.592 278.168 260.966 279.437 257C281.999 248.993 280.215 239.187 280.015 231C279.014 190.16 260.647 155.638 232 127C219.846 114.85 204.612 102.374 187 100C190.578 92.3362 194.977 83.91 199.954 77.0579C202.187 73.9845 207.752 72.3522 207.623 68.0247C207.482 63.2743 200.79 61.5749 198.183 65.4337C196.357 68.1365 197.581 71.9911 196.381 75C193.314 82.6928 187.357 88.9868 185 97C183.731 89.4942 185.785 78.398 187.862 71.0394C188.884 67.4184 193.424 64.0657 192.288 60.0579C190.944 55.32 183.579 55.1245 182.492 60.1088C181.758 63.4718 184.331 66.6041 184.266 70C184.1 78.7203 181.073 87.2265 181 96L179 96C178.612 87.11 174.915 78.7634 173.72 70C173.258 66.6092 175.247 63.3521 174.512 60.0548C173.449 55.2812 166.584 54.3062 164.786 59.1335C163.022 63.8691 168.448 66.2703 169.972 70.054C173.198 78.0609 174.896 88.4492 176 97z"/>
</svg>